<svg width="103" height="103" viewBox="0 0 103 103" fill="none" xmlns="http://www.w3.org/2000/svg">
<path d="M46.5778 12.8604L47.7587 13.1228L48.4147 13.6476L48.546 13.91V15.2221L47.8899 17.1903L47.7587 17.8463L48.4147 17.9775L50.5141 19.0272L51.9574 19.9457L53.6631 21.389L54.7128 22.7011L55.6313 24.2756L56.2873 26.1126L56.5498 27.4247V29.524L56.0249 31.7546L55.1065 33.854L53.7944 35.6909L52.0886 37.3967L54.0568 38.1839L55.5001 38.9712L56.681 39.8896L57.337 40.4145V40.6769L57.9931 40.8081L60.6173 39.8896L62.9791 39.2336L65.0784 38.84L68.0963 38.5775H70.9829L74.0007 38.7088L74.9192 36.2158L75.444 35.4285L75.8377 35.0349L76.7561 34.9037L77.8058 35.2973L78.3307 35.9533V37.1342L77.5434 39.496L77.4122 39.7584L78.5931 40.1521L80.8237 41.333L82.267 42.3826L83.8415 43.826L84.76 45.1381L85.6784 46.975L86.2033 48.8119L86.3345 51.0425L86.0721 52.7482L85.416 54.7164L84.4975 56.4221L83.1854 58.1279L82.0045 59.1775L81.7421 59.3088L83.3167 59.9648L85.1536 60.8833L86.9905 62.3266L88.0402 63.5075L89.0899 65.3444L89.7459 67.0502L90.1396 69.0183L90.2708 70.3304V71.7737L89.8772 74.3979L89.2211 76.3661L88.1714 78.4654L86.8593 80.3024L84.76 82.4017L83.0542 83.7138L80.8237 85.0259L77.8058 86.3381L75.1816 87.1253L72.1638 87.7814L70.1956 88.0438L68.4899 88.175H65.2096L61.5358 87.7814L59.0428 87.2565L58.6491 88.5686L56.9434 92.6361L55.8937 94.9979L55.6313 95.3916L54.9753 95.2603L54.7128 94.8667L55.7625 91.324L57.2058 86.9941V86.7317L53.9256 85.5508L53.2695 85.1572L53.7944 83.8451L54.3192 82.6642L54.9753 82.7954L57.7307 83.8451L58.2555 83.9763L58.6491 82.4017L60.2237 77.547L61.7982 72.8234L64.4224 65.082L66.653 58.7839L68.6211 53.1419L71.2453 45.9253L72.5574 42.3826L72.951 41.4642H68.6211L65.9969 41.7266L63.1103 42.2514L60.2237 43.0387L59.4364 43.4323L60.0924 45.5317L60.3549 46.7126L60.4861 49.3368L60.3549 51.1737L59.6988 53.7979L58.5179 56.2909L57.4682 57.7342L56.0249 59.44L54.188 61.0145L52.2198 62.3266L49.7268 63.6387L46.4466 64.8196L43.9536 65.4756L42.2479 65.8693V70.9865L41.9854 71.2489L40.1485 71.6425H39.6237L39.3612 69.6744L39.23 68.0998V66.1317H34.7689L31.4886 65.7381L29.3893 65.3444L28.7332 66.7877L27.5523 69.6744L26.109 73.0858L25.8466 73.3482L25.1905 73.217L24.9281 72.8234L26.3714 68.0998L27.4211 64.9508L27.5523 64.6884L26.2402 64.2947L24.1409 63.5075L23.4848 63.1138L23.7472 62.3266L24.2721 61.2769L24.5345 60.6209L28.4708 61.933L28.8644 60.3584L32.9319 48.1559L34.7689 42.7763L37.3931 35.1661L39.0988 30.4425L41.723 23.226L42.7727 20.4705L43.0351 19.6833L42.9039 19.5521H37.5243L34.5065 19.9457L31.095 20.8642L28.602 21.7826L25.3217 23.3572L22.8288 24.9317L20.7294 26.6374L19.6797 27.5559L18.7612 28.4744L17.5803 29.9177L16.2682 31.7546L15.3498 33.3291L14.0377 36.2158L13.1192 39.3648L12.7256 41.0705L12.4631 43.5635V49.0744L10.6262 49.5992H9.83894L9.57652 47.6311L9.44531 45.9253V43.9572L9.70773 40.9393L10.2326 38.0527L11.0198 35.4285L11.9383 33.1979L13.2504 30.7049L14.5625 28.868L15.7434 27.4247L16.9243 26.1126L18.1052 24.9317L19.5485 23.7508L21.5167 22.3075L23.616 20.9954L26.6338 19.4209L29.2581 18.3712L31.751 17.5839L34.7689 16.9279L38.0491 16.5342H41.5918L44.0848 16.7967L44.8721 14.8285L45.5281 13.5164L46.1842 12.9916L46.5778 12.8604ZM46.053 16.6654L45.7905 17.0591L46.1842 17.1903L46.053 16.6654ZM44.8721 19.9457L44.4784 20.6018L44.6096 20.8642L45.1345 19.9457H44.8721ZM46.709 20.4705L46.1842 21.5202L45.0033 24.9317L42.5103 31.6234L40.5421 36.8718L38.8364 41.333L34.1128 53.2731L30.5702 62.0642L30.4389 62.589L31.4886 62.8514L34.5065 63.2451L39.0988 63.3763L39.4924 63.2451L40.4109 59.0463L41.1982 56.6846L42.3791 54.0603L43.56 52.0922L45.1345 49.9928L46.709 48.2871L48.2835 46.7126L50.5141 45.0068L51.8262 44.0884L53.7944 42.9075L54.844 42.2514L54.5816 41.7266L52.7447 40.6769L50.6453 39.8896L48.1523 39.496H45.3969L45.2657 36.7406L46.8402 36.6094L48.546 36.0846L49.9893 35.2973L51.3014 34.2476L52.4823 32.8043L53.2695 31.0986L53.6631 29.6553V27.4247L53.4007 26.2438L52.4823 24.4068L51.3014 23.0947L50.2517 22.1763L48.4147 21.1266L47.1026 20.4705H46.709ZM75.5752 38.84L75.7065 39.1024H76.1001V38.84H75.5752ZM74.5256 41.989L74.2631 42.7763L74.788 42.2514V41.989H74.5256ZM76.3625 42.5139L74.9192 46.5814L72.8198 52.2234L70.8517 57.4718L68.4899 63.6387L66.1281 69.6744L62.9791 77.547L60.4861 83.7138L60.2237 84.5011L60.6173 84.7635L63.2415 85.1572L64.9472 85.2884H69.4084L72.5574 84.8947L76.1001 83.9763L79.2491 82.6642L81.6109 81.2209L83.3167 79.9088L84.76 78.4654L85.6784 77.1533L86.7281 75.054L87.253 73.3482L87.3842 72.4298V69.4119L86.9905 67.575L85.9409 65.4756L84.76 64.1635L83.5791 63.2451L81.7421 62.3266L79.3803 61.6705L78.3307 61.5393H75.1816L75.0504 58.7839L77.1498 58.5215L78.8555 57.8654L80.43 56.8158L81.7421 55.5037L82.7918 53.7979L83.1854 52.7482L83.4479 51.4361V49.468L83.0542 47.8935L82.267 46.4502L81.0861 45.1381L79.9052 44.0884L78.0682 43.0387L76.8874 42.5139H76.3625ZM56.5498 44.482L54.5816 45.5317L52.6135 46.8438L50.7765 48.2871L49.4644 49.468L48.0211 50.9113L46.709 52.617L45.3969 54.5852L43.8224 57.8654L43.0351 60.3584L42.5103 62.4578V62.8514L43.6912 62.7202L46.3154 61.933L48.4147 61.1457L51.1702 59.7024L52.7447 58.5215L54.0568 57.3406L55.1065 56.2909L56.4186 54.3228L57.0746 52.7482L57.5995 50.7801L57.7307 48.5495L57.4682 46.4502L56.8122 44.482H56.5498Z" fill="#0E355B"/>
<path d="M47.4981 0H55.2395L59.7006 0.524841L63.6369 1.3121L67.442 2.36178L70.5911 3.54268L73.8713 4.98599L77.1516 6.69172L79.5134 8.13503L81.7439 9.70955L83.3185 10.8904L85.0242 12.3338L86.4675 13.5147L89.4854 16.5325L90.4038 17.5822L91.9783 19.4191L93.6841 21.7809L94.9962 23.749L96.5707 26.3732L98.1452 29.3911L99.851 33.4586L101.032 37.0013L101.819 40.1503L102.475 43.693L102.869 46.7108L103 48.679V53.7962L102.738 57.6013L102.082 61.5376L101.425 64.4242L100.507 67.7045L98.9325 71.772L97.8828 74.1338L96.5707 76.6268L95.2586 78.8573L93.2905 81.7439L91.5847 83.9745L90.4038 85.2866L89.4854 86.4675H89.2229L88.9605 86.9924L86.8611 89.0917L85.8115 90.0102L83.8433 91.7159L81.2191 93.6841L78.5949 95.3898L76.1019 96.8331L74.1338 97.8828L70.8535 99.3261L67.7045 100.507L64.1618 101.557L61.0127 102.213L57.6013 102.738L54.1898 103H48.8102L44.349 102.606L41.2 102.082L37.2637 101.163L33.3274 99.851L29.9159 98.4076L27.4229 97.2268L25.0611 95.9146L22.8306 94.4713L20.6 92.8968L18.7631 91.4535L16.7949 89.7478L15.614 88.5669L14.6955 87.7796L13.7771 86.7299L12.7274 85.6803L11.5465 84.2369L9.97197 82.2688L8.13503 79.6446L6.4293 76.758L4.72357 73.4777L3.01783 69.4102L1.96815 66.2611L1.04968 62.7185L0.393631 59.1758L0 55.5019V47.3669L0.26242 44.7427L0.918471 40.9376L1.96815 36.7389L3.01783 33.5898L4.32994 30.4408L5.90446 27.1605L8.00382 23.6178L9.70955 21.1248L11.0217 19.4191L12.465 17.7134L15.3516 14.5643L16.6637 13.3834L18.2382 11.9401L20.0752 10.4968L22.4369 8.79108L25.3236 6.95414L28.735 5.1172L32.5401 3.41146L35.9516 2.23057L39.7567 1.18089L43.1682 0.524841L47.4981 0ZM48.679 2.75541L45.5299 3.01783L41.5936 3.67389L38.3134 4.46115L35.8204 5.24841L32.9338 6.29809L29.7847 7.7414L27.2917 9.0535L24.9299 10.4968L22.6994 12.0713L20.3376 13.9083L18.8943 15.2204L17.8446 16.1389L15.2204 18.7631L14.0395 20.2064L12.7274 21.7809L11.0217 24.1427L9.44713 26.6357L7.87261 29.5223L6.56051 32.2777L5.24841 35.6892L4.19873 39.1006L3.41146 42.7745L2.88662 46.3172L2.6242 49.5975V53.5338L2.88662 56.5516L3.41146 60.2255L4.19873 63.7682L5.24841 67.3108L6.29809 70.0662L7.7414 73.2153L9.0535 75.7083L10.4968 78.0701L11.8089 79.907L12.9898 81.4815L14.1707 82.9248L15.3516 84.2369L16.2701 85.2866L18.5006 87.5172L19.5503 88.4357L21.6497 90.1414L23.6178 91.5847L25.586 92.8968L28.079 94.3401L30.572 95.6522L34.6395 97.358L37.9197 98.4076L41.0688 99.1949L44.7427 99.851L48.5478 100.245H54.0586L58.1261 99.851L61.8 99.1949L65.4739 98.2764L69.279 96.9643L73.0841 95.2586L75.8395 93.8153L78.7261 91.9783L81.2191 90.1414L82.6624 88.9605L84.4994 87.386L85.4178 86.4675L86.3363 85.6803L87.2548 84.6306L88.6981 83.0561L89.879 81.6127L91.7159 79.1197L93.1592 76.8892L94.7338 74.1338L96.3083 70.8535L97.6204 67.442L98.6701 63.8994L99.3261 61.144L99.851 57.9949L100.245 53.665V49.335L99.851 45.0051L99.1949 41.2L98.1452 37.2637L97.0955 34.1147L95.7834 31.0968L94.7338 28.9975L93.5529 26.7669L91.9783 24.2739L90.1414 21.7809L88.4357 19.6815L86.9924 18.107L83.9745 15.0892L82.5312 13.9083L80.5631 12.3338L77.9389 10.4968L75.0522 8.79108L72.0344 7.21656L68.2293 5.64204L64.5554 4.46115L60.7503 3.54268L56.158 2.88662L53.9274 2.75541H48.679Z" fill="#0E355B"/>
</svg>
